<?xml version="1.0" encoding="utf-8"?>
<!-- Generator: Adobe Illustrator 21.0.0, SVG Export Plug-In . SVG Version: 6.00 Build 0)  -->
<svg version="1.1" id="Camada_1" xmlns="http://www.w3.org/2000/svg" xmlns:xlink="http://www.w3.org/1999/xlink" x="0px" y="0px"
	 viewBox="0 0 778 618" style="enable-background:new 0 0 778 618;" xml:space="preserve">
<style type="text/css">
	.st0{fill:#E45546;}
	.st1{fill:#213645;}
</style>
<path class="st0" d="M386.9,298.8l66.4-7.3c0,0,0.9-0.1,0.7-1c-0.7-2.9-4.6-10.3-9.6-11.8c-3.9-1.2-48.5,10.3-48.4,10.1
	c11.7-28.4,10.4-54.2,9.2-59.3c-0.1-0.4-0.5-1.4-1.2-1.9c-3.4-2.5-11.2-5.6-27.3-11.5c-1.7-0.6-0.4-0.5,0.2-0.3
	c19.3,5.6,29.5,9.7,30.5,11c2.3,3,1.9,19.4,0.9,28.8c-0.6,5.2-1.7,8.8-0.8,8c15-13.6,19.8-33.2,20.4-35.8c0-0.2,0.1-0.3,0-0.5
	c-0.6-0.5-2.4-2-3.4-2.8c-0.2-0.1-0.3-0.3-0.3-0.5c-0.4-2.4-2.6-17-3.6-23c-1-5.8,5.3,18.3,6.2,21.5c0.1,0.2,0.3,0.5,0.4,0.6
	c1.7,1.4,14.7,10.6,16.7,12.1c0.2,0.1,0.2,0.3,0,0.5c-1,1-3.9,4.4-4.9,5.8c-0.3,0.4-0.4,0.7,0.1,0.9c0,0,3.2,1.4,4.6,1.8
	c0.6,0.2,0.8,0.1,1-0.1c1.3-1.2,4.4-5.8,4.8-7.7c0-0.2-0.1-0.9-0.2-1.1c-2.1-5.5-16-22.8-16-22.8l7.9-30.6l-4.7-33.4
	c0,0,10.3,3.7,18.6-3.9c8.5-7.7,7.3-15,6.6-18c-0.4-1.6-14.3,10.2-22.3,14c-0.1,0,3.9-6.1,3.6-12.6c-0.4-7.8-5.7-10.2-6.1-10.2
	c-0.4,0-2.4,10.6-5.5,21.5c-0.2,0.7,0.3,0.7,2.6,1.1c1.5,0.3,3.2,0.4,3.2,0.4c1,0-13.2,2.3-59.5,7.6c-4.1,0.5,5.8,13.6,8.1,14.1
	c10.3,1.9,23.6,1.6,29.2,1.3c1.7-0.1,2.6-0.3,2.4,0.4c-0.4,1.6-1.3,6.1-1.6,7.8c-0.1,0.5,0,0.8,0.6,0.8c2.8-0.1,11.2-1.4,9.7-0.8
	c-14.5,5.3-43.7,17.4-68.8,35.4c-2.7,1.9-3.9,4.5-4.2,6.8c-2.3,18.8-7.3,56.3-9,75.2c0,0.6-0.2,0.8-0.9,1.1
	c-1.9,0.8-19.6,5.3-20.1,5.4c-0.2,0.1-0.4,0-0.7-0.2c-2.5-2.7-21.7-22-24.3-24.7c-0.2-0.2-0.2-0.3-0.4-0.3l-0.1,0l-4.7,0.6
	c0,0-0.2,0-0.1,0.2c0,0,23.8,35,23.8,35.1c0,0.1,0.1,0,0.1,0l42.1-4.6c1.8-0.5,2.1-2.2,2.6-3.8c0.2-0.7,10.5-34.9,10.5-34.9
	l11.4,3.7C383,266.9,385.7,298.6,386.9,298.8z"/>
<line x1="325.2" y1="392.5" x2="325.2" y2="391.8"/>
<g>
	<g>
		<g>
			<path class="st1" d="M240.1,327.9l-12.2,1.2c-1.3,0.1-1.9,0.9-1.9,2l-1.5,57.7l-0.3-0.1l-16.9-56.1c-0.3-1-1-1.3-2.1-1.2
				l-11.6,1.2c-1.2,0.1-1.9,0.9-1.9,2l-2.7,113.1c0,1.1,0.7,1.7,1.8,1.6l12.4-1.2c1.3-0.1,1.9-0.9,1.9-2l1.4-61.2l0.3,0.1l18,59.3
				c0.3,1,1,1.3,2.1,1.2l10.5-1.1c1.2-0.1,1.9-0.9,1.9-2l2.7-112.9C242,328.4,241.3,327.8,240.1,327.9z"/>
			<path class="st1" d="M482.2,307.9l-44.5,4.5c-1.1,0.1-1.8,1.1-1.9,2.1l-2.3,83.9c0,1.1,0.8,2.2,2.3,2.1l43.9-4.4
				c1.5-0.1,2-0.9,2-2.1l0.3-11.7c0-1.3-0.4-1.8-1.9-1.7l-30.2,3l0.6-21.5l23.1-2.3c1.2-0.1,2-0.9,2-2.2L476,346
				c0-1.3-0.7-1.9-1.9-1.8l-23.1,2.3l0.6-20l30.2-3.1c1.5-0.1,2-1,2-2.2l0.3-11.7C484.1,308.4,483.6,307.7,482.2,307.9z"/>
			<path class="st1" d="M597,391.2l-28.2,2.9l2.6-98.2c0-1.2-0.5-1.8-1.9-1.7l-12.4,1.3c-1.2,0.1-1.9,0.9-2,2l-2.8,112.7
				c0,1.3,0.7,1.8,1.9,1.7l42.5-4.4c1.3-0.1,1.9-0.8,2-2l0.2-12.6C598.9,391.7,598.3,391.1,597,391.2z"/>
			<g>
				<path class="st1" d="M330.7,323.4l-3.6,0.4l-3.9,0.4l-7.6,0.8c-1.2,0.1-2,0.9-2,2.1l-2.3,84.3c0,1.2,0.7,1.8,1.9,1.7l12.6-1.3
					c1.2-0.1,2-0.9,2-2.1l1.1-39.5l0.9-31.2l0.5-0.1c1.2-0.1,2.2-1.2,2.3-2.3l0.3-11.4C332.8,324.1,331.9,323.3,330.7,323.4z"/>
				<path class="st1" d="M347.8,321.4l-0.9,0.1l-4.4,0.4l-2.7,0.3c-1.2,0.1-2.2,1.2-2.3,2.3l0,0.4l-0.3,11l0,0.4
					c0,1.2,0.9,2,2.1,1.9l5.2-0.5c2.4,0.1,3.6,1.6,3.6,4.2l-0.6,21.7c-0.1,2.6-1.4,4.4-3.8,5l-8.5,1.1c-3.4,0.9-2,3.8-2,4.5
					l12.7,34.1c0.2,1,0.8,1.5,2,1.4l12.6-1.3c1.3-0.1,2.1-0.9,1.8-2.3l-9.5-23.8l2-0.6c5.8-3.1,9-8.5,9.2-16.3l0-0.4l0.8-28.2l0-0.4
					C365,325.5,359.1,320.3,347.8,321.4z"/>
			</g>
			<path class="st1" d="M289.6,327.6c-0.3,0-0.7-0.1-1,0l-0.4,0c-0.7,0-1.4,0.1-2.2,0.1l-1.4,0.1l-1.6,0.1c-1.2,0.1-2.2,1.2-2.3,2.3
				l-0.3,11.4c0,1.2,0.9,2,2.1,1.9l0.1,0c0,0,0,0,0,0c2.5,0.1,3.8,1.4,3.7,4.2l-0.7,25.7l-3.9,0.4c-1.2,0.1-2.2,1.2-2.3,2.3
				l-0.3,11.4c0,1.2,0.9,2,2.1,1.9l3.9-0.4l-0.7,24.5c0,1.3,1,2.2,2.4,2.1l11.6-1.2c1.3-0.1,2.5-1.3,2.5-2.6l1.9-69
				C303.3,333,298.6,327.8,289.6,327.6z"/>
			<path class="st1" d="M273.9,329.2l-1.6,0.2l-1.4,0.1c-0.8,0.1-1.5,0.2-2.2,0.3l-0.4,0c-0.3,0-0.6,0.1-1,0.2
				c-9.1,2.1-14.3,8.2-14.5,18.1l-1.8,68.7c0,1.3,1,2.2,2.4,2.1l11.3-1.1c1.3-0.1,2.4-1.3,2.5-2.6l0.6-24.2l4.4-0.4
				c1.2-0.1,2.2-1.2,2.3-2.3l0.3-11.4c0-1.2-0.9-2-2.1-1.9l-4.4,0.4l0.7-25.7c0.1-2.9,1.6-4.5,4.2-5.1l0.3,0c0.2,0,0.3-0.1,0.5-0.1
				l0.1,0v0c1-0.3,1.7-1.2,1.7-2.2l0.3-11.4C276.1,330,275.1,329.1,273.9,329.2z"/>
			<path class="st1" d="M530,302.9c-0.3,0-0.7-0.1-1,0l-0.4,0c-0.7,0-1.4,0.1-2.2,0.1l-1.4,0.1l-1.6,0.1c-1.2,0.1-2.2,1.2-2.3,2.3
				l-0.3,11.4c0,1.2,0.9,2,2.1,1.9l0.1,0c0,0,0,0,0,0c2.5,0.1,3.8,1.4,3.7,4.2l-0.7,25.7l-3.9,0.4c-1.2,0.1-2.2,1.2-2.3,2.3
				l-0.3,11.4c0,1.2,0.9,2,2.1,1.9l3.9-0.4l-0.7,24.8c0,1.3,1,2.2,2.4,2.1l11.6-1.2c1.3-0.1,2.5-1.3,2.5-2.6l1.9-69.3
				C543.7,308.4,539.1,303.2,530,302.9z"/>
			<path class="st1" d="M514.3,304.6l-1.6,0.2l-1.4,0.1c-0.8,0.1-1.5,0.2-2.2,0.3l-0.4,0c-0.3,0-0.6,0.1-1,0.2
				c-9.1,2.1-14.3,8.2-14.5,18.1l-1.8,69c0,1.3,1,2.2,2.4,2.1l11.3-1.1c1.3-0.1,2.4-1.3,2.5-2.6l0.6-24.5l4.4-0.4
				c1.2-0.1,2.2-1.2,2.3-2.3l0.3-11.4c0-1.2-0.9-2-2.1-1.9l-4.4,0.4l0.7-25.7c0.1-2.9,1.6-4.5,4.2-5.1l0.3,0c0.2,0,0.3-0.1,0.5-0.1
				l0.1,0v0c1-0.3,1.7-1.2,1.7-2.2l0.3-11.4C516.5,305.3,515.6,304.5,514.3,304.6z"/>
			<g>
				<path class="st1" d="M391.3,317.2l-3.6,0.4l-3.9,0.4l-7.6,0.8c-1.2,0.1-2,0.9-2,2.1l-2.3,84.3c0,1.2,0.7,1.8,1.9,1.7l12.6-1.3
					c1.2-0.1,2-0.9,2-2.1l1.1-39.5l0.9-31.2l0.5-0.1c1.2-0.1,2.2-1.2,2.3-2.3l0.3-11.4C393.5,317.9,392.5,317.1,391.3,317.2z"/>
				<path class="st1" d="M408.4,315.3l-0.9,0.1l-4.4,0.4l-2.7,0.3c-1.2,0.1-2.2,1.2-2.3,2.3l0,0.4l-0.3,11l0,0.4
					c0,1.2,0.9,2,2.1,1.9l5.2-0.5c2.4,0.1,3.6,1.6,3.6,4.2l-0.6,21.7c-0.1,2.6-1.4,4.4-3.8,5l-8.5,1.1c-3.4,0.9-2,3.8-2,4.5
					l12.7,34.1c0.2,1,0.8,1.5,2,1.4l12.6-1.3c1.3-0.1,2.1-0.9,1.8-2.3l-9.5-23.8l2-0.6c5.8-3.1,9-8.5,9.2-16.3l0-0.4l0.8-28.2l0-0.4
					C425.7,319.4,419.8,314.1,408.4,315.3z"/>
			</g>
		</g>
		<g>
			<g>
				<path class="st1" d="M338,435.4c-0.1,2-0.6,3.8-1.4,5.1c-0.4,0.7-0.4,1.2,0,1.7c0.7,1,1.1,2.3,1.1,3.5c-0.1,4.5-2.7,7.3-7,7.7
					l-5.3,0.5c-0.4,0-0.7-0.3-0.7-0.6l0.7-23.2c0-0.4,0.3-0.7,0.7-0.8l5.3-0.5C335.8,428.5,338.2,430.9,338,435.4z M329.7,449.7
					l1.1-0.1c1.9-0.2,3.1-1.4,3.1-3.5c0-1.6-1-2.5-2.9-2.3l-0.9,0.1c-0.8,0.1-1.3,0.6-1.3,1.4l-0.1,3.3
					C328.6,449.4,329,449.8,329.7,449.7z M330,440.1l1.1-0.1c1.9-0.2,3.1-1.7,3.1-4.2c0.1-2.1-1-3.2-2.9-3l-0.9,0.1
					c-0.8,0.1-1.3,0.6-1.3,1.4l-0.1,4.7C328.9,439.7,329.3,440.2,330,440.1z"/>
				<path class="st1" d="M354.2,434.3c-0.1,2.4-0.8,4.2-1.6,5.5c-0.3,0.6-0.3,1,0,1.5c0.4,0.6,1,1.3,0.9,2.3l-0.1,5.1
					c0,0.6,0,1.1,0.1,1.6c0.1,0.6-0.1,1.1-0.8,1.2l-2.3,0.2c-0.2,0-0.4-0.1-0.5-0.2c0,0,0-0.1,0-0.1c-0.3-0.5-0.3-1.3-0.3-2.5
					l0.1-5.1c0-0.7-0.1-1.2-0.5-1.5c-0.2-0.2-0.4-0.2-0.7-0.2l-1.2,0.1c-0.9,0.1-1.6,0.8-1.6,1.8l-0.2,7.3c0,0.4-0.3,0.7-0.7,0.8
					l-2.4,0.2c-0.4,0-0.7-0.3-0.7-0.6l0.7-23.2c0-0.4,0.3-0.7,0.7-0.8l5.9-0.5C352.9,426.9,354.4,428.9,354.2,434.3z M347.3,438.5
					l1.4-0.1c1.2-0.1,1.7-1.2,1.8-3.7c0.1-2.6-0.4-3.6-1.6-3.5l-1.1,0.1c-0.9,0.1-1.6,0.8-1.6,1.8l-0.1,4
					C345.9,437.9,346.5,438.5,347.3,438.5z"/>
				<path class="st1" d="M368.6,426.2l-0.1,2.5c0,0.4-0.3,0.7-0.7,0.8l-3.7,0.3c-0.8,0.1-1.3,0.6-1.3,1.4l-0.1,5
					c0,0.8,0.4,1.2,1.2,1.1l3.1-0.3c0.4,0,0.7,0.3,0.7,0.6l-0.1,2.5c0,0.4-0.3,0.7-0.7,0.8l-3.1,0.3c-0.8,0.1-1.3,0.6-1.3,1.4
					l-0.1,2.9c0,0.8,0.4,1.2,1.2,1.1l3.7-0.3c0.4,0,0.7,0.3,0.7,0.6l-0.1,2.5c0,0.4-0.3,0.7-0.7,0.8l-8.1,0.8
					c-0.4,0-0.7-0.3-0.7-0.6l0.7-23.2c0-0.4,0.3-0.7,0.7-0.8l8.1-0.8C368.3,425.5,368.6,425.8,368.6,426.2z"/>
				<path class="st1" d="M375.4,425.5l0.5,7.4c0,0.8,1,0.7,1.1-0.1l1.3-7.6c0-0.4,0.3-0.6,0.7-0.7l1.2-0.1c0.3,0,0.6,0.2,0.6,0.5
					l0.9,7.4c0.1,0.8,1,0.6,1.1-0.1l1-7.5c0-0.4,0.3-0.7,0.7-0.7l2-0.2c0.5,0,0.8,0.3,0.7,0.8l-3.3,23.3c0,0.4-0.3,0.6-0.7,0.7
					l-1.9,0.2c-0.3,0-0.6-0.2-0.6-0.5l-1-8.9c-0.1-0.9-1-0.8-1.2,0.1l-1.5,9.1c0,0.4-0.3,0.6-0.7,0.7l-1.9,0.1
					c-0.3,0-0.6-0.2-0.6-0.5L372,426c-0.1-0.5,0.3-0.9,0.8-0.9l2-0.2C375.1,424.9,375.4,425.1,375.4,425.5z"/>
				<path class="st1" d="M395.1,423.7l-0.3,9.6c0,1,0.5,1.5,1.5,1.4l0.9-0.1c1-0.1,1.6-0.7,1.6-1.7l0.3-9.6c0-0.4,0.3-0.7,0.7-0.8
					l2.4-0.2c0.4,0,0.7,0.3,0.7,0.6l-0.7,23.2c0,0.4-0.3,0.7-0.7,0.8l-2.4,0.2c-0.4,0-0.7-0.3-0.7-0.6l0.2-6.5c0-1-0.5-1.5-1.5-1.4
					l-0.9,0.1c-1,0.1-1.6,0.7-1.6,1.7l-0.2,6.5c0,0.4-0.3,0.7-0.7,0.8l-2.4,0.2c-0.4,0-0.7-0.3-0.7-0.6l0.7-23.2
					c0-0.4,0.3-0.7,0.7-0.8l2.4-0.2C394.8,423,395.1,423.3,395.1,423.7z"/>
				<path class="st1" d="M413.6,420.8c3.7-0.3,6.2,2,6.1,5.9l-0.4,12.6c-0.1,3.8-2.7,6.5-6.4,6.9c-3.7,0.3-6.1-2-6-5.7l0.4-12.6
					C407.4,424,409.9,421.2,413.6,420.8z M413,442.4c1.4-0.1,2.4-1.2,2.5-2.7l0.4-12.6c0-1.6-0.9-2.5-2.3-2.4
					c-1.4,0.1-2.4,1.3-2.4,2.9l-0.4,12.6C410.7,441.6,411.6,442.5,413,442.4z"/>
				<path class="st1" d="M428.1,420.6l-0.6,18.8c0,0.9,0.8,1.5,2.1,1.4c1.3-0.1,2.2-0.8,2.2-1.8l0.6-18.8c0-0.4,0.3-0.7,0.7-0.8
					l2.4-0.2c0.4,0,0.7,0.3,0.7,0.6l-0.6,18.8c-0.1,3.3-2.6,5.7-6.1,6c-3.6,0.3-5.9-1.6-5.8-4.9l0.6-18.8c0-0.4,0.3-0.7,0.7-0.8
					l2.4-0.2C427.9,419.9,428.2,420.2,428.1,420.6z"/>
				<path class="st1" d="M448.3,425.9l0-1c0.1-2.5-0.5-3.8-1.8-3.6c-1.2,0.1-1.9,1.5-2,4c0,1.1,1,2.3,2.9,3.4
					c3.2,1.8,4.9,4.1,4.8,6.6c-0.1,4.8-2.3,7.5-6.4,7.9c-4,0.4-6-2-5.9-6.8l0-1.1c0-0.4,0.3-0.7,0.7-0.8l2.8-0.3
					c0.4,0,0.7,0.3,0.7,0.6l0,1.1c-0.1,2.5,0.5,3.8,1.8,3.6c1.3-0.1,2-1.5,2.1-4c0-1.4-1-2.6-3-3.5c-3.2-1.6-4.8-3.8-4.8-6.5
					c0.1-4.8,2.3-7.5,6.3-7.9c4-0.4,6.1,2,5.9,6.8l0,1c0,0.4-0.3,0.7-0.7,0.8l-2.8,0.3C448.6,426.6,448.2,426.3,448.3,425.9z"/>
				<path class="st1" d="M466.3,417l-0.1,2.5c0,0.4-0.3,0.7-0.7,0.8l-3.7,0.3c-0.8,0.1-1.3,0.6-1.3,1.4l-0.1,5
					c0,0.8,0.4,1.2,1.2,1.1l3.1-0.3c0.4,0,0.7,0.3,0.7,0.6l-0.1,2.5c0,0.4-0.3,0.7-0.7,0.8l-3.1,0.3c-0.8,0.1-1.3,0.6-1.3,1.4
					l-0.1,2.9c0,0.8,0.4,1.2,1.2,1.1l3.7-0.3c0.4,0,0.7,0.3,0.7,0.6l-0.1,2.5c0,0.4-0.3,0.7-0.7,0.8l-8.1,0.8
					c-0.4,0-0.7-0.3-0.7-0.6l0.7-23.2c0-0.4,0.3-0.7,0.7-0.8l8.1-0.8C466,416.4,466.3,416.7,466.3,417z"/>
			</g>
			<path class="st1" d="M499.3,423.7l39-4.2c0.4,0,0.8,0.2,0.9,0.6l0,2.4c0.1,0.4-0.2,0.7-0.5,0.8l-51.9,5.5c-0.4,0-0.8-0.2-0.9-0.6
				l0-2.4c-0.1-0.4,0.2-0.7,0.5-0.8l5.9-0.7L499.3,423.7z"/>
			<path class="st1" d="M265.3,448.2l39-4.2c0.4,0,0.8,0.2,0.9,0.6l0,2.4c0.1,0.4-0.2,0.7-0.5,0.8l-51.9,5.5c-0.4,0-0.8-0.2-0.9-0.6
				l0-2.4c-0.1-0.4,0.2-0.7,0.5-0.8l5.9-0.7L265.3,448.2z"/>
		</g>
	</g>
</g>
</svg>
